<svg width="40" height="35" viewBox="0 0 40 35" fill="none" xmlns="http://www.w3.org/2000/svg">
<path d="M35.7021 15.1705H24.9787M8.55662 5.62014L6.5881 3.63565C5.63948 2.67309 4.36842 2.10598 3.0264 2.04651L2 2M34.2545 24.8604H13.0221L8.51063 5.48059H38L34.2545 24.8604ZM18.851 31.8372C18.851 32.4794 18.3366 33 17.7021 33C17.0675 33 16.5531 32.4794 16.5531 31.8372C16.5531 31.195 17.0675 30.6744 17.7021 30.6744C18.3366 30.6744 18.851 31.195 18.851 31.8372ZM30.3404 31.8372C30.3404 32.4794 29.826 33 29.1914 33C28.5569 33 28.0425 32.4794 28.0425 31.8372C28.0425 31.195 28.5569 30.6744 29.1914 30.6744C29.826 30.6744 30.3404 31.195 30.3404 31.8372Z" stroke="white" stroke-width="3" stroke-linecap="round" stroke-linejoin="round"/>
</svg>
