<svg width="24" height="24" viewBox="0 0 24 24" fill="none" xmlns="http://www.w3.org/2000/svg">
<g clip-path="url(#clip0_331_1007)">
<path d="M12.1168 2.13994C15.2919 2.13994 15.6679 2.15386 16.9165 2.20956C18.077 2.26063 18.7037 2.45559 19.1215 2.61806C19.6739 2.83159 20.0731 3.09153 20.4862 3.50467C20.904 3.92244 21.1593 4.31701 21.3728 4.8694C21.5353 5.28717 21.7302 5.91848 21.7813 7.07432C21.837 8.32765 21.8509 8.70364 21.8509 11.8741C21.8509 15.0492 21.837 15.4252 21.7813 16.6739C21.7302 17.8343 21.5353 18.461 21.3728 18.8788C21.1593 19.4312 20.8993 19.8304 20.4862 20.2435C20.0684 20.6613 19.6739 20.9166 19.1215 21.1301C18.7037 21.2926 18.0724 21.4876 16.9165 21.5386C15.6632 21.5943 15.2872 21.6082 12.1168 21.6082C8.94168 21.6082 8.56569 21.5943 7.31701 21.5386C6.15652 21.4876 5.52986 21.2926 5.11208 21.1301C4.55969 20.9166 4.16048 20.6566 3.74735 20.2435C3.32957 19.8257 3.07427 19.4312 2.86074 18.8788C2.69827 18.461 2.50331 17.8297 2.45225 16.6739C2.39654 15.4205 2.38262 15.0445 2.38262 11.8741C2.38262 8.699 2.39654 8.323 2.45225 7.07432C2.50331 5.91384 2.69827 5.28717 2.86074 4.8694C3.07427 4.31701 3.33422 3.9178 3.74735 3.50467C4.16512 3.08689 4.55969 2.83159 5.11208 2.61806C5.52986 2.45559 6.16116 2.26063 7.31701 2.20956C8.56569 2.15386 8.94168 2.13994 12.1168 2.13994ZM12.1168 0C8.89062 0 8.48677 0.0139258 7.21952 0.0696292C5.95692 0.125332 5.08887 0.329578 4.33688 0.62202C3.55239 0.928389 2.88859 1.33224 2.22943 1.99604C1.56564 2.65519 1.16179 3.31899 0.855419 4.09884C0.562976 4.85547 0.358731 5.71887 0.303028 6.98148C0.247324 8.25338 0.233398 8.65722 0.233398 11.8834C0.233398 15.1095 0.247324 15.5134 0.303028 16.7806C0.358731 18.0432 0.562976 18.9113 0.855419 19.6633C1.16179 20.4478 1.56564 21.1116 2.22943 21.7707C2.88859 22.4299 3.55239 22.8384 4.33223 23.1401C5.08887 23.4325 5.95227 23.6368 7.21488 23.6925C8.48213 23.7482 8.88598 23.7621 12.1121 23.7621C15.3383 23.7621 15.7421 23.7482 17.0094 23.6925C18.272 23.6368 19.14 23.4325 19.892 23.1401C20.6719 22.8384 21.3357 22.4299 21.9948 21.7707C22.654 21.1116 23.0625 20.4478 23.3642 19.6679C23.6566 18.9113 23.8609 18.0479 23.9166 16.7853C23.9723 15.518 23.9862 15.1142 23.9862 11.888C23.9862 8.66187 23.9723 8.25802 23.9166 6.99077C23.8609 5.72816 23.6566 4.86011 23.3642 4.10812C23.0718 3.31899 22.6679 2.65519 22.0041 1.99604C21.345 1.33688 20.6812 0.928389 19.9013 0.626662C19.1447 0.33422 18.2813 0.129974 17.0187 0.0742711C15.7468 0.0139258 15.3429 0 12.1168 0Z" fill="white"/>
<path d="M12.1169 5.7793C8.7468 5.7793 6.0127 8.5134 6.0127 11.8835C6.0127 15.2535 8.7468 17.9876 12.1169 17.9876C15.4869 17.9876 18.221 15.2535 18.221 11.8835C18.221 8.5134 15.4869 5.7793 12.1169 5.7793ZM12.1169 15.843C9.9305 15.843 8.15727 14.0698 8.15727 11.8835C8.15727 9.6971 9.9305 7.92387 12.1169 7.92387C14.3032 7.92387 16.0764 9.6971 16.0764 11.8835C16.0764 14.0698 14.3032 15.843 12.1169 15.843Z" fill="white"/>
<path d="M19.8873 5.53787C19.8873 6.327 19.2467 6.96295 18.4622 6.96295C17.6731 6.96295 17.0371 6.32236 17.0371 5.53787C17.0371 4.74874 17.6777 4.11279 18.4622 4.11279C19.2467 4.11279 19.8873 4.75338 19.8873 5.53787Z" fill="white"/>
</g>
<defs>
<clipPath id="clip0_331_1007">
<rect width="23.7668" height="23.7668" fill="white" transform="translate(0.233398)"/>
</clipPath>
</defs>
</svg>
