<svg width="35" height="35" viewBox="0 0 35 35" fill="none" xmlns="http://www.w3.org/2000/svg">
<path d="M24.868 22.7346C22.9933 25.1126 20.3367 26.7496 17.3694 27.355C14.4022 27.9604 11.3165 27.4951 8.65987 26.0416C6.00326 24.588 3.94767 22.2403 2.85797 19.4152C1.76826 16.5901 1.71493 13.4703 2.70744 10.6096C3.69995 7.74885 5.6741 5.3323 8.27947 3.78882C10.8848 2.24534 13.9529 1.67477 16.9391 2.17844C19.9252 2.6821 22.6363 4.2274 24.5911 6.54002C26.546 8.85264 27.618 11.783 27.617 14.811C27.6165 15.7142 27.5213 16.6149 27.3329 17.4983M23.9543 23.9554L33.0001 33" stroke="white" stroke-width="3" stroke-miterlimit="10" stroke-linecap="round" stroke-linejoin="round"/>
</svg>
