<svg width="18" height="24" viewBox="0 0 18 24" fill="none" xmlns="http://www.w3.org/2000/svg">
<path d="M8.79325 11.3507C10.1889 11.3507 11.3204 10.2192 11.3204 8.82352C11.3204 7.42782 10.1889 6.29639 8.79325 6.29639C7.39755 6.29639 6.26611 7.42782 6.26611 8.82352C6.26611 10.2192 7.39755 11.3507 8.79325 11.3507Z" stroke="white" stroke-width="2" stroke-linecap="round" stroke-linejoin="round"/>
<path d="M16.3747 8.82352C16.377 7.64679 16.1053 6.48568 15.5813 5.43211C15.0572 4.37854 14.295 3.46143 13.3552 2.75337C12.4153 2.04531 11.3235 1.56575 10.1663 1.35265C9.00901 1.13955 7.81803 1.19876 6.6876 1.52559C5.55718 1.85242 4.51834 2.43789 3.65335 3.23568C2.78835 4.03346 2.12094 5.02164 1.70393 6.122C1.28693 7.22235 1.13178 8.40469 1.25078 9.57538C1.36978 10.7461 1.75964 11.873 2.38953 12.8669L3.35996 14.3832L8.79329 22.47L14.2266 14.3832L15.1971 12.8669C15.9661 11.6585 16.3747 10.2559 16.3747 8.82352V8.82352Z" stroke="white" stroke-width="2" stroke-linecap="round" stroke-linejoin="round"/>
</svg>
