<svg width="81" height="69" viewBox="0 0 81 69" fill="none" xmlns="http://www.w3.org/2000/svg">
<path d="M37.1239 41.4589L38.1368 43.401L39.4872 45.343L41.5128 47.285L44.8889 48.9034L47.9274 49.2271H51.641L55.3547 48.256L57.3803 46.314L60.0812 44.0483L62.1068 41.1353L64.1325 37.8985M64.1325 37.8985L65.8205 34.6618L66.1581 30.4541M64.1325 37.8985L65.1453 40.1643L66.8333 44.0483L68.1838 47.6087L68.5214 51.8164V56.0242L66.1581 59.2609L63.7949 62.1739L60.0812 63.7923L56.3675 65.7343L51.641 66.7053L47.2521 67.029L41.5128 68H36.4487L31.7222 67.6763H26.3205L21.594 67.029L18.5556 66.7053L14.1667 65.7343L9.77778 63.7923L6.40171 62.4976L4.03846 60.2319L2.01282 58.2899L1 54.7295V50.8454L1.33761 47.285L2.68803 42.43L4.03846 38.8696L6.40171 36.2802L10.1154 32.0725L14.5043 28.5121L19.5684 25.599L22.6068 24.3043L26.3205 23.657L30.0342 23.0097L32.735 22.0386M66.1581 30.4541L69.8718 27.5411L73.9231 24.3043L75.2735 25.2754L76.6239 25.599L78.6496 25.2754L80 23.9807V22.3623L78.6496 20.4203L77.9744 19.7729H75.2735V17.8309V15.5652L73.2479 14.9179H70.8846L69.8718 16.2126V18.4783V19.7729L67.8462 21.0676L64.1325 23.9807L61.4316 25.599M66.1581 30.4541L61.4316 25.599M61.4316 25.599H56.3675L53.3291 26.2464L51.3034 27.2174L50.2906 26.2464M50.2906 26.2464L50.6282 22.0386L49.6154 17.8309M50.2906 26.2464L47.2521 25.2754L44.2137 23.9807L40.5 23.0097H37.1239H33.4103L32.735 22.0386M49.6154 17.8309L54.6795 9.73913L58.3932 9.41546L59.0684 8.44444L60.0812 6.82609L59.0684 5.20773L57.3803 3.58937H55.3547L54.6795 4.23671L53.3291 1.97101L52.3162 1H50.6282L48.6026 1.32367L47.5897 2.94203L46.9145 4.23671L47.9274 5.5314L48.6026 6.82609L47.2521 9.09179L44.2137 13.9469L43.5385 14.9179M49.6154 17.8309L46.5769 17.1836L43.5385 14.9179M43.5385 14.9179L39.4872 16.5362L37.1239 18.1546L34.4231 19.7729L32.735 22.0386M26.3205 29.1594L21.9316 30.7778L18.2179 32.7198L14.1667 35.6328L10.453 39.8406L8.42735 42.43L7.07692 45.9903L6.40171 48.9034V51.8164" stroke="white" stroke-width="2"/>
</svg>
